<?xml version="1.0" encoding="UTF-8"?>
<svg id="Calque_1" data-name="Calque 1" xmlns="http://www.w3.org/2000/svg" viewBox="0 0 235.66 62.71">
  <defs>
    <style>
      .cls-icon {
        fill: #19A36D;
      }
      .cls-text {
        fill: #000000;
      }
    </style>
  </defs>
  <path class="cls-icon" d="M46.52,40.05c-5.11,7.2-10.94,11.5-15.6,11.5h0c-1.09,0-2.11-.23-3.03-.7-.53-.27-.86-.63-.98-1.06-.15-.56.13-1.01.16-1.06l.2-.31.31.21c.67.46,1.49.69,2.44.69,3.99,0,9.76-4.07,13.74-9.67,3.32-4.68,4.97-9.89,4.3-13.6-.29-1.6-.99-2.79-2.07-3.53-.74-.51-1.66-.76-2.72-.76-3.74,0-8.67,3.09-12.26,7.68l-.32.41-1.11-1.74.1-.19c.03-.06.4-.64.73-1.13l.94-1.28c3.73-4.81,9.05-7.9,13.55-7.9,1.58,0,2.95.38,4.05,1.13,1.44.98,2.4,2.6,2.78,4.68.83,4.58-1.17,10.96-5.21,16.65M14.86,37.62c-5.57-8.08-6.56-17.1-2.19-20.11,1.16-.8,2.62-1.22,4.22-1.22,3.67,0,8.97,2.29,12.82,8.7l.11.19-1.19,1.99-.33-.42c-3.28-4.13-6.92-6.51-10-6.51-1.07,0-2.04.29-2.87.87-1.61,1.11-2.3,3.37-1.95,6.37.36,3.08,1.77,6.54,3.98,9.74,3.44,4.99,8.27,8.34,12.03,8.34,1,0,1.85-.25,2.55-.73l.25-.17.21.21s.47.48.39,1.05c-.06.39-.34.72-.83.97-.96.49-2.03.75-3.18.75-4.45,0-9.69-3.75-14.02-10.02M31.05,0C13.9,0,0,13.9,0,31.04s13.9,31.05,31.05,31.05,31.04-13.9,31.04-31.05S48.19,0,31.05,0"/>
  <path class="cls-text" d="M105.73,36.71l-7.53-17.34-7.53,17.34h15.06ZM77.69,48.83l15.92-35.53c.86-1.9,2.39-3.06,4.53-3.06h.37c2.14,0,3.61,1.16,4.47,3.06l15.92,35.53c.31.55.43,1.1.43,1.59,0,2.02-1.53,3.61-3.55,3.61-1.77,0-3-1.04-3.67-2.64l-3.49-8.02h-20.82l-3.61,8.27c-.61,1.53-1.9,2.39-3.49,2.39-1.96,0-3.49-1.53-3.49-3.49,0-.55.18-1.1.49-1.71"/>
  <path class="cls-text" d="M123.98,12.38c0-2.02,1.59-3.67,3.67-3.67s3.74,1.65,3.74,3.67v37.98c0,2.08-1.65,3.68-3.74,3.68s-3.67-1.59-3.67-3.68V12.38Z"/>
  <path class="cls-text" d="M163.9,37.62v-.12c0-6.25-4.22-10.35-9.24-10.35s-9.43,4.17-9.43,10.35v.12c0,6.19,4.41,10.35,9.43,10.35s9.24-3.98,9.24-10.35M138,24.76c0-2.08,1.59-3.74,3.67-3.74s3.73,1.65,3.73,3.74v2.02c2.39-3.37,5.76-6.06,11.02-6.06,7.59,0,15,6,15,16.79v.12c0,10.72-7.35,16.79-15,16.79-5.39,0-8.75-2.7-11.02-5.7v10.33c0,2.08-1.65,3.67-3.73,3.67s-3.67-1.59-3.67-3.67V24.76Z"/>
  <path class="cls-text" d="M177.55,44.79v-17.03h-1.22c-1.78,0-3.18-1.41-3.18-3.19s1.41-3.18,3.18-3.18h1.22v-5.51c0-2.02,1.65-3.67,3.73-3.67s3.67,1.65,3.67,3.67v5.51h5.82c1.77,0,3.24,1.41,3.24,3.18s-1.47,3.19-3.24,3.19h-5.82v15.87c0,2.88,1.47,4.04,3.98,4.04.86,0,1.59-.18,1.84-.18,1.65,0,3.12,1.35,3.12,3.06,0,1.35-.92,2.45-1.96,2.88-1.59.55-3.12.86-5.08.86-5.45,0-9.3-2.39-9.3-9.5"/>
  <path class="cls-text" d="M198.56,24.76c0-2.08,1.59-3.74,3.67-3.74s3.73,1.65,3.73,3.74v25.61c0,2.08-1.65,3.68-3.73,3.68s-3.67-1.59-3.67-3.68v-25.61ZM198,12.69c0-2.21,1.84-3.61,4.23-3.61s4.22,1.41,4.22,3.61v.37c0,2.21-1.84,3.67-4.22,3.67s-4.23-1.47-4.23-3.67v-.37Z"/>
  <path class="cls-text" d="M211.35,50.49c-.8-.43-1.41-1.35-1.41-2.57,0-1.65,1.28-3,3-3,.61,0,1.16.18,1.59.43,3.12,2.08,6.37,3.12,9.31,3.12,3.18,0,5.02-1.35,5.02-3.49v-.12c0-2.51-3.43-3.37-7.22-4.53-4.77-1.35-10.1-3.31-10.1-9.5v-.12c0-6.13,5.08-9.86,11.51-9.86,3.43,0,7.04.98,10.16,2.64,1.04.55,1.78,1.53,1.78,2.82,0,1.72-1.35,3-3.06,3-.61,0-.98-.12-1.47-.37-2.63-1.35-5.33-2.21-7.59-2.21-2.88,0-4.53,1.35-4.53,3.19v.12c0,2.39,3.49,3.37,7.29,4.6,4.71,1.47,10.04,3.61,10.04,9.43v.12c0,6.8-5.27,10.17-12,10.17-4.1,0-8.57-1.29-12.31-3.86"/>
</svg>
